# xmcd
#
# Track frame offsets:
# 150
# 19300
# 31180
# 52280
# 67287
# 83857
# 95265
# 118900
# 141265
# 158635
# 177117
# 197650
# 221567
# 240362
# 261120
# 275597
# 290885
#
# Disc length: 4134 seconds
#
#
# Revision: 0
# Processed by: cddbd v1.5.2PL0 Copyright (c) Steve Scherf et al.
# Submitted via: FreeRIP 2.96 
#
DISCID=05102411
DTITLE=Alma Serrana - Ao vivo
DYEAR=2006
DGENRE=
TTITLE0=To de buzão
TTITLE1=Pancadão
TTITLE2=Alagados
TTITLE3=Blusinha branca
TTITLE4=Saudade de minha terra
TTITLE5=Requebra na vanera
TTITLE6=Roda morena - Nossa vanera
TTITLE7=Amargurado - Telefone mudo
TTITLE8=Deixa eu te amar
TTITLE9=Kilometro 11
TTITLE10=Puerto tirol - El kangui
TTITLE11=Um bagual corcoveador - Bailanta da neca maria
TTITLE12=Pagode em brasilia - O campeão - Pagode
TTITLE13=É o amor
TTITLE14=Menina safadinha
TTITLE15=Tereco teco
TTITLE16=Kilometro 11 extra track
EXTD=
EXTT0=
EXTT1=
EXTT2=
EXTT3=
EXTT4=
EXTT5=
EXTT6=
EXTT7=
EXTT8=
EXTT9=
EXTT10=
EXTT11=
EXTT12=
EXTT13=
EXTT14=
EXTT15=
EXTT16=
PLAYORDER=
